<?xml version="1.0" encoding="UTF-8"?>
<svg id="Layer_2" data-name="Layer 2" xmlns="http://www.w3.org/2000/svg" viewBox="0 0 53.31 53.28">
  <defs>
    <style>
      .cls-1 {
        fill: #231f20;
      }
    </style>
  </defs>
  <g id="Layer_1-2" data-name="Layer 1">
    <path class="cls-1" d="m9.84,17.46C6.08,13.74,2.92,8.38.36,1.38L0,.3c.28.08.68.21,1.2.39.52.18,1.52.57,3,1.17,1.48.6,2.9,1.24,4.26,1.92,1.36.68,2.87,1.58,4.53,2.7,1.66,1.12,3.09,2.26,4.29,3.42,1.16,1.16,3.01,3.39,5.55,6.69,2.54,3.3,4.77,5.91,6.69,7.83.84.8,3.14,2.86,6.9,6.18l-5.7,5.76c-3.4-3.8-5.48-6.08-6.24-6.84-1.92-1.88-4.55-4.07-7.89-6.57-3.34-2.5-5.59-4.33-6.75-5.49Zm-3.42,29.64h.06c.68.72,1.02,1.58,1.02,2.58s-.35,1.85-1.05,2.55c-.7.7-1.55,1.05-2.55,1.05s-1.85-.35-2.55-1.05-1.06-1.55-1.08-2.55c-.02-1,.33-1.85,1.05-2.55.72-.7,1.58-1.06,2.58-1.08,1-.02,1.84.33,2.52,1.05Zm4.86-4.86c.56.56,1.2,1,1.92,1.32l-3.96,4.08c-.64-1.6-1.76-2.7-3.36-3.3l4.02-4.08c.36.72.82,1.38,1.38,1.98Zm5.82.12c-1.84,0-3.3-.54-4.38-1.62-.68-.68-1.15-1.55-1.41-2.61-.26-1.06-.32-2.02-.18-2.88.14-.86.37-1.45.69-1.77l2.46-2.46,8.16,8.1-2.46,2.46c-.48.52-1.44.78-2.88.78ZM35.82,9.84c3.72-3.76,9.08-6.92,16.08-9.48l1.08-.36c-.08.28-.21.68-.39,1.2-.18.52-.57,1.52-1.17,3-.6,1.48-1.24,2.9-1.92,4.26-.68,1.36-1.58,2.87-2.7,4.53-1.12,1.66-2.26,3.09-3.42,4.29-1.16,1.16-3.39,3.01-6.69,5.55-3.3,2.54-5.91,4.77-7.83,6.69-.8.84-2.86,3.14-6.18,6.9l-5.76-5.7c3.76-3.4,6.04-5.48,6.84-6.24,1.88-1.92,4.07-4.55,6.57-7.89,2.5-3.34,4.33-5.59,5.49-6.75Zm6.54,26.34c0,1.84-.54,3.3-1.62,4.38-.68.68-1.55,1.15-2.61,1.41-1.06.26-2.02.32-2.88.18-.86-.14-1.45-.37-1.77-.69l-2.46-2.46,8.1-8.16,2.46,2.46c.52.48.78,1.44.78,2.88Zm-.12,5.82c.56-.56,1-1.2,1.32-1.92l4.08,3.96c-1.6.64-2.7,1.76-3.3,3.36l-4.02-4.02c.68-.36,1.32-.82,1.92-1.38Zm4.86,4.86v-.06c.72-.68,1.58-1.02,2.58-1.02s1.85.35,2.55,1.05c.7.7,1.06,1.55,1.08,2.55.02,1-.33,1.85-1.05,2.55-.72.7-1.58,1.06-2.58,1.08-1,.02-1.85-.33-2.55-1.05-.7-.72-1.06-1.58-1.08-2.58-.02-1,.33-1.84,1.05-2.52Z"/>
  </g>
</svg>