<svg width="20" height="31" viewBox="0 0 20 31" fill="none" xmlns="http://www.w3.org/2000/svg">
<path d="M10.866 0.0281502C11.0574 0.21361 11.3043 0.365953 11.4302 0.587842C12.0901 1.75856 12.75 2.93424 13.3444 4.13808C13.5476 4.54874 13.6416 5.04882 13.6483 5.51082C13.6819 7.58068 13.7104 9.65386 13.6433 11.7221C13.6231 12.3215 13.3763 12.969 13.0589 13.4906C12.4545 14.4858 12.4595 14.6629 13.4082 15.4263C13.7944 15.736 14.1101 16.1367 14.4241 16.5242C14.6524 16.8057 14.6994 17.3289 15.272 17.0358C15.7388 16.7974 16.0612 16.4712 15.8983 15.9016C15.7522 15.3915 15.5877 14.8865 15.4181 14.3848C14.5366 11.7701 14.6558 10.664 16.1586 8.11223C16.345 8.35399 16.5414 8.54276 16.659 8.77127C17.7235 10.8362 18.7595 12.9176 19.8426 14.9743C20.1247 15.5091 20.0323 15.8221 19.5622 16.1682C18.9493 16.6169 18.4237 17.1849 17.7941 17.6071C17.2282 17.9863 17.1123 18.4384 17.2534 19.0378C17.4112 19.7068 17.475 20.3443 16.973 20.9471C16.8655 21.0762 16.9981 21.515 17.1476 21.7187C17.5623 22.2834 18.051 22.7934 18.4976 23.3349C19.1709 24.1512 18.8066 25.673 17.8058 26.0538C16.753 26.4546 15.6817 26.8271 14.5937 27.1153C13.8532 27.3123 13.4216 27.7147 13.1849 28.4052C12.9683 29.0394 12.6778 29.6521 12.4931 30.2946C12.3302 30.8609 12.0061 31.0232 11.4386 31.0017C10.421 30.9636 9.40013 30.9652 8.38091 31.0017C7.84862 31.0215 7.5447 30.8626 7.37343 30.3443C7.135 29.6289 6.80085 28.945 6.55738 28.2313C6.35925 27.6468 5.99991 27.3024 5.39711 27.1368C4.44505 26.8735 3.50642 26.5655 2.56611 26.2675C0.93065 25.7475 0.497436 24.3317 1.57711 23.055C1.73999 22.8613 1.89782 22.6642 2.06238 22.4721C2.59969 21.8429 3.33179 21.2683 2.60809 20.3162C2.52246 20.2019 2.52078 19.975 2.56443 19.8244C2.9691 18.3721 2.07917 17.5806 1.08009 16.7775C-0.263205 15.6979 -0.241376 15.6631 0.532698 14.1049C1.45453 12.2486 2.38477 10.3974 3.31836 8.54773C3.38888 8.40697 3.51817 8.29603 3.75493 8.00294C4.25195 9.36077 4.75568 10.558 5.10494 11.7966C5.21744 12.1957 4.9471 12.714 4.8111 13.166C4.5693 13.9691 4.2637 14.754 4.05045 15.5621C3.96482 15.89 3.95139 16.3056 4.08236 16.607C4.36277 17.2544 4.76576 17.2561 5.23759 16.7378C5.70607 16.2228 6.18126 15.7062 6.7085 15.2524C7.25757 14.7805 7.40198 14.3003 6.90664 13.7439C6.32566 13.0932 6.14935 12.3463 6.16279 11.4969C6.19133 9.5661 6.13256 7.63367 6.19469 5.70456C6.21652 5.06207 6.41298 4.38812 6.68332 3.79697C7.18201 2.70408 7.77978 1.65258 8.37083 0.602745C8.50684 0.360985 8.78389 0.198707 8.99714 0C9.07606 0.0447091 9.1533 0.0910742 9.23222 0.135783C9.23222 0.430532 9.23222 0.725282 9.23222 1.01837C9.23222 6.3073 9.23054 11.5962 9.24229 16.8852C9.24229 17.1667 9.28427 17.5293 9.46058 17.7032C9.61002 17.8505 10.0264 17.877 10.2397 17.7777C10.4227 17.6916 10.5822 17.3538 10.5839 17.1269C10.6158 11.785 10.6259 6.44143 10.6393 1.09951C10.6393 0.794829 10.6393 0.490145 10.6393 0.18546C10.7149 0.132472 10.7888 0.077827 10.8643 0.0248384L10.866 0.0281502ZM3.79859 22.338C3.81874 24.345 5.41726 25.8535 6.95533 25.264C7.78818 24.9444 8.58744 24.1247 9.02737 23.3282C9.46898 22.5301 8.80572 21.7469 8.13743 21.164C7.94769 20.9984 7.75963 20.8262 7.5531 20.6805C6.77735 20.134 5.9848 19.3293 4.97565 19.8095C3.90269 20.3195 3.9346 21.5001 3.79859 22.338ZM16.0226 22.2105C15.9202 21.8727 15.7841 21.1839 15.5037 20.5579C15.1192 19.6985 14.3686 19.4137 13.5442 19.8972C12.7046 20.389 11.8634 20.9702 11.2455 21.6988C10.8778 22.131 10.6393 23.0832 10.8761 23.517C11.3345 24.3549 11.9809 25.2971 13.1462 25.312C14.8993 25.3352 15.9319 24.2936 16.0209 22.2122L16.0226 22.2105ZM10.0802 24.7043L9.73428 24.7109C9.33632 25.4064 8.87121 26.0737 8.56057 26.8056C8.31878 27.3786 8.47997 27.9714 9.04752 28.3572C9.65536 28.7712 10.2833 28.7215 10.8694 28.3241C11.4386 27.9382 11.5813 27.367 11.2841 26.7742C10.9281 26.0621 10.4848 25.3931 10.0785 24.7059L10.0802 24.7043Z" fill="white"/>
</svg>
