<svg width="16" height="18" viewBox="0 0 16 18" fill="none" xmlns="http://www.w3.org/2000/svg">
<path d="M10.0054 8.41515C12.1805 8.41515 13.9206 10.0982 13.9206 12.202C13.9206 12.9425 13.7031 13.641 13.3203 14.2216L16 16.8303L14.7906 18L12.0761 15.4166C11.4758 15.7784 10.7624 15.9888 10.0054 15.9888C7.83034 15.9888 6.09027 14.3058 6.09027 12.202C6.09027 10.0982 7.83034 8.41515 10.0054 8.41515ZM10.0054 10.0982C9.42857 10.0982 8.87532 10.3198 8.46741 10.7144C8.0595 11.1089 7.83034 11.644 7.83034 12.202C7.83034 12.7599 8.0595 13.295 8.46741 13.6896C8.87532 14.0841 9.42857 14.3058 10.0054 14.3058C10.5823 14.3058 11.1356 14.0841 11.5435 13.6896C11.9514 13.295 12.1805 12.7599 12.1805 12.202C12.1805 11.644 11.9514 11.1089 11.5435 10.7144C11.1356 10.3198 10.5823 10.0982 10.0054 10.0982ZM1.74008 16.8303C1.27858 16.8303 0.835984 16.653 0.509656 16.3373C0.183329 16.0217 0 15.5936 0 15.1473V1.68303C0 0.748948 0.783034 0 1.74008 0H2.61011V5.8906L4.78521 4.62833L6.9603 5.8906V0H12.1805C12.642 0 13.0846 0.177319 13.411 0.492948C13.7373 0.808577 13.9206 1.23666 13.9206 1.68303V8.25526C12.9027 7.31276 11.528 6.73212 10.0054 6.73212C8.50557 6.73212 7.06714 7.3084 6.00657 8.3342C4.94601 9.35999 4.35019 10.7513 4.35019 12.202C4.35019 14.1459 5.40294 15.8626 6.98641 16.8303H1.74008Z" fill="white"/>
</svg>
