<svg width="16" height="23" viewBox="0 0 16 23" fill="none" xmlns="http://www.w3.org/2000/svg">
<path fill-rule="evenodd" clip-rule="evenodd" d="M7.741 0.134229C7.69456 0.0966193 7.64809 0.0589753 7.60552 0.0190673L7.60435 0.0168241C7.5779 0.0347698 7.55175 0.052996 7.5256 0.0712221C7.49945 0.0894482 7.4733 0.107674 7.44686 0.12562V0.744748C7.4456 1.22765 7.44439 1.71058 7.44318 2.19352C7.4353 5.32914 7.42743 8.46539 7.40808 11.6008C7.4069 11.7545 7.29525 11.9833 7.16714 12.0416C7.01788 12.1089 6.72641 12.0909 6.62181 11.9911C6.49841 11.8733 6.46903 11.6277 6.46903 11.437C6.46171 8.25283 6.46183 5.06862 6.46195 1.88441C6.46196 1.4862 6.46198 1.088 6.46198 0.689789V0.0919719C6.43436 0.0768302 6.40703 0.061408 6.37971 0.0459859C6.35238 0.0305638 6.32506 0.0151417 6.29744 0C6.25077 0.0420787 6.19974 0.0817456 6.14873 0.1214C6.03657 0.208584 5.92449 0.295706 5.85906 0.408265C5.84039 0.440352 5.82171 0.47244 5.80304 0.504533C5.40774 1.1837 5.01121 1.86499 4.6779 2.57185C4.48868 2.97226 4.35117 3.42876 4.3359 3.86394C4.31065 4.62264 4.31393 5.3821 4.31721 6.14166C4.31958 6.69025 4.32194 7.23889 4.31357 7.78733C4.30416 8.36271 4.42757 8.86856 4.83421 9.30935C5.18092 9.68621 5.07985 10.0115 4.69553 10.3311C4.32649 10.6385 3.99389 10.9884 3.66599 11.3372C3.33573 11.6883 3.05367 11.6872 2.85739 11.2486C2.76572 11.0445 2.77513 10.763 2.83506 10.5409C2.92295 10.2186 3.03325 9.90174 3.14365 9.58461C3.22074 9.36316 3.29788 9.14158 3.36747 8.91791C3.39081 8.84281 3.41982 8.76501 3.44914 8.68636C3.53936 8.44436 3.63257 8.19435 3.57314 7.99034C3.39831 7.39034 3.16818 6.80468 2.92402 6.18331C2.82677 5.93584 2.7273 5.6827 2.62822 5.42073C2.56531 5.4961 2.51324 5.55368 2.47014 5.60134C2.39972 5.67922 2.35327 5.7306 2.32264 5.78974C1.66919 7.04258 1.01808 8.29654 0.372855 9.55386L0.368936 9.56149C-0.169017 10.6094 -0.181954 10.6346 0.755996 11.3641C1.45529 11.9081 2.07819 12.4442 1.79494 13.4279C1.76439 13.53 1.76556 13.6836 1.8255 13.761C2.27146 14.3288 1.92763 14.6984 1.58236 15.0695C1.53546 15.1199 1.48852 15.1704 1.44353 15.2213C1.37651 15.2971 1.31108 15.3739 1.24562 15.4508C1.19859 15.506 1.15154 15.5613 1.10388 15.6162C0.348174 16.4809 0.651396 17.4399 1.79612 17.7921C1.91203 17.8276 2.0279 17.8634 2.14379 17.8992C2.68597 18.0665 3.22861 18.234 3.77764 18.3809C4.19956 18.4931 4.45107 18.7264 4.58976 19.1223C4.67266 19.3575 4.77059 19.5879 4.86851 19.8183C4.97188 20.0615 5.07524 20.3047 5.16094 20.5535C5.28082 20.9045 5.49355 21.0122 5.86611 20.9987C6.5774 20.9741 7.28987 20.973 8 20.9985C8.0008 18.7901 9.79135 17 12 17C12.3559 17 12.701 17.0465 13.0294 17.1337C13.2529 16.7154 13.2505 16.1616 12.9472 15.8057C12.8335 15.6724 12.716 15.5419 12.5985 15.4114C12.3927 15.1829 12.187 14.9544 12.0022 14.711C11.8976 14.5731 11.8048 14.2758 11.88 14.1883C12.2314 13.7801 12.1868 13.3483 12.0763 12.8951C11.9776 12.4891 12.0587 12.1829 12.4547 11.9261C12.6961 11.7694 12.9156 11.5832 13.1352 11.3969C13.3167 11.2429 13.4982 11.0889 13.6923 10.9514C14.0214 10.717 14.086 10.505 13.8886 10.1427C13.4206 9.28267 12.9651 8.41622 12.5097 7.54995C12.2275 7.01309 11.9453 6.47631 11.6602 5.94116C11.6049 5.83711 11.5247 5.74523 11.4384 5.64644C11.3963 5.59826 11.3528 5.54844 11.31 5.49476C10.2581 7.22316 10.1747 7.97239 10.7917 9.74341C10.9104 10.0833 11.0256 10.4253 11.1278 10.7708C11.2418 11.1566 11.0162 11.3776 10.6895 11.5391C10.3865 11.6892 10.2937 11.5232 10.1975 11.3509C10.1664 11.2953 10.1349 11.239 10.0959 11.1925C10.083 11.177 10.07 11.1615 10.057 11.146C9.84993 10.8983 9.63927 10.6463 9.38489 10.4489C8.72086 9.93184 8.71734 9.81183 9.14044 9.13774C9.36257 8.78443 9.53533 8.34589 9.54943 7.93986C9.59645 6.53897 9.57646 5.13472 9.55296 3.73271C9.54826 3.41978 9.48244 3.08106 9.34023 2.8029C8.92418 1.98749 8.4623 1.19115 8.00042 0.398171C7.94027 0.295622 7.84073 0.215005 7.741 0.134229ZM4.8683 17.1124C3.79174 17.5117 2.67288 16.4899 2.65877 15.1305C2.6731 15.0451 2.68477 14.9544 2.69681 14.8608C2.76477 14.3325 2.84469 13.7113 3.48264 13.4178C4.08648 13.1397 4.57952 13.4978 5.04914 13.8388C5.12886 13.8967 5.2079 13.9541 5.2867 14.0078C5.40822 14.0907 5.52061 14.1864 5.63224 14.2814C5.6534 14.2994 5.67453 14.3174 5.69569 14.3353C6.16346 14.7301 6.62769 15.2606 6.31859 15.8012C6.01067 16.3407 5.45124 16.8959 4.8683 17.1124ZM11.152 14.8197C11.1755 14.9075 11.196 14.984 11.2148 15.0441L11.2136 15.0453C11.1513 16.4551 10.4285 17.1606 9.20155 17.1449C8.38591 17.1348 7.93343 16.4966 7.61257 15.9291C7.44686 15.6352 7.61375 14.9903 7.87114 14.6976C8.30364 14.204 8.89245 13.8104 9.48009 13.4772C10.0572 13.1497 10.5825 13.3427 10.8516 13.9248C10.9964 14.2374 11.0861 14.5732 11.152 14.8197ZM6.81338 16.7378L7.05549 16.7333L7.05432 16.7344C7.13887 16.8728 7.22572 17.0101 7.31256 17.1474C7.51782 17.4719 7.72308 17.7964 7.89817 18.1353C8.10619 18.5368 8.00629 18.9238 7.60787 19.1851C7.1977 19.4543 6.75815 19.4879 6.3327 19.2075C5.93545 18.9462 5.82262 18.5447 5.99186 18.1566C6.14338 17.8111 6.3474 17.4869 6.55143 17.1627C6.64019 17.0216 6.72895 16.8806 6.81338 16.7378Z" fill="white"/>
<path d="M13.6409 18.4443L15.11 19.5832L13.6409 20.7221L15.11 21.861L13.6409 22.9999V22.2406H12.8741L12.085 21.5269L12.6783 20.9904L13.2211 21.4814H13.6409V20.7221V19.9629H13.2211L10.7026 22.2406H9.44336V21.4814H10.3556L12.8741 19.2036H13.6409V18.4443ZM9.44336 19.2036H10.7026L11.4918 19.9173L10.8985 20.4538L10.3556 19.9629H9.44336V19.2036Z" fill="white"/>
</svg>
